<?xml version="1.0" standalone="no"?>
<!DOCTYPE svg PUBLIC "-//W3C//DTD SVG 20010904//EN"
 "http://www.w3.org/TR/2001/REC-SVG-20010904/DTD/svg10.dtd">
<svg version="1.0" xmlns="http://www.w3.org/2000/svg"
 width="486.000000pt" height="194.000000pt" viewBox="0 0 486.000000 194.000000"
 preserveAspectRatio="xMidYMid meet">

<g transform="translate(0.000000,194.000000) scale(0.100000,-0.100000)"
fill="#000000" stroke="none">
<path d="M0 1314 l0 -627 60 65 60 66 54 -22 c52 -20 56 -24 71 -71 34 -104
132 -238 234 -321 33 -27 60 -53 60 -57 1 -4 -9 -23 -22 -41 l-22 -34 -185 93
-185 93 48 21 c27 12 53 21 58 21 29 0 -4 25 -103 81 -62 34 -116 64 -120 66
-5 2 -8 -142 -8 -321 l0 -326 2430 0 2430 0 0 970 0 970 -2430 0 -2430 0 0
-626z m483 100 c63 -74 160 -73 220 3 33 41 79 26 112 -36 11 -23 65 -260 65
-289 0 -15 -99 -43 -192 -54 -132 -17 -360 19 -375 58 -6 17 46 262 63 296 27
53 72 62 107 22z m-126 -421 c73 -26 89 -28 243 -28 154 0 170 2 241 27 72 26
79 26 124 13 146 -45 163 -115 40 -170 -233 -103 -794 -76 -892 44 -19 22 -16
55 6 75 20 18 127 65 148 66 7 0 48 -12 90 -27z m1104 -103 c11 -14 22 -40 25
-57 6 -32 6 -33 -29 -33 -31 0 -36 3 -39 28 -4 34 -41 43 -57 13 -16 -29 1
-65 64 -133 60 -65 74 -105 55 -163 -14 -43 -48 -67 -94 -67 -47 0 -75 18 -92
57 -24 58 -19 75 21 75 32 0 35 -2 35 -30 0 -55 62 -52 68 3 3 20 -10 41 -57
91 -68 73 -86 119 -71 177 12 42 27 57 67 68 41 11 84 -1 104 -29z m765 18
c28 -13 44 -49 44 -98 0 -37 -2 -40 -28 -40 -25 0 -29 5 -38 42 -10 48 -38 63
-61 32 -16 -22 -18 -255 -3 -285 25 -45 70 -8 70 57 0 20 5 24 30 24 29 0 30
-2 30 -46 0 -80 -30 -113 -103 -114 -92 0 -114 55 -105 270 5 123 18 154 71
169 34 9 58 7 93 -11z m660 0 c25 -12 44 -48 44 -84 0 -22 -4 -25 -32 -22 -25
2 -34 9 -38 28 -4 18 -12 25 -30 25 -21 0 -25 -5 -28 -36 -3 -32 3 -44 51 -95
66 -72 77 -92 77 -139 0 -71 -33 -104 -103 -105 -38 0 -53 5 -72 25 -14 13
-25 32 -25 42 0 10 -3 28 -6 41 -6 20 -3 22 29 22 31 0 36 -3 39 -26 6 -56 68
-59 68 -4 0 23 -12 44 -48 83 -69 74 -82 99 -82 154 0 58 19 89 63 102 34 9
58 7 93 -11z m490 12 c8 0 26 -12 39 -26 20 -21 25 -38 25 -75 0 -48 -1 -49
-29 -49 -27 0 -30 3 -33 36 -3 40 -25 61 -52 51 -14 -6 -16 -27 -16 -157 0
-130 2 -151 16 -157 28 -11 49 11 52 56 3 38 5 41 33 41 28 0 29 -1 29 -54 0
-74 -29 -106 -97 -106 -92 1 -103 25 -103 227 0 135 3 161 18 181 18 23 67 43
90 36 8 -2 20 -4 28 -4z m-1636 -30 c0 -28 -3 -30 -35 -30 l-35 0 0 -190 0
-190 -35 0 -35 0 0 190 0 190 -35 0 c-32 0 -35 2 -35 30 l0 30 105 0 105 0 0
-30z m210 26 c0 -8 60 -380 66 -408 5 -26 4 -28 -30 -28 -34 0 -36 2 -42 40
-6 39 -7 40 -49 40 -42 0 -43 -1 -49 -40 -6 -36 -9 -40 -36 -40 -17 0 -30 5
-30 11 0 16 60 401 65 417 4 11 105 19 105 8z m452 -88 l3 -93 44 93 c42 89
45 92 77 92 19 0 34 -2 34 -5 0 -3 -21 -46 -46 -97 l-46 -91 46 -118 c25 -65
46 -120 46 -123 0 -4 -15 -6 -34 -6 -32 0 -34 2 -66 86 -32 81 -34 84 -46 62
-7 -13 -13 -51 -14 -85 l0 -63 -35 0 -35 0 0 220 0 220 35 0 34 0 3 -92z m778
62 l0 -30 -60 0 -60 0 0 -60 0 -60 45 0 c45 0 45 0 45 -35 0 -35 0 -35 -45
-35 l-45 0 0 -65 0 -65 60 0 60 0 0 -30 0 -30 -95 0 -95 0 0 220 0 220 95 0
95 0 0 -30z m390 -141 c0 -177 6 -209 41 -209 32 0 39 40 39 216 l0 164 30 0
30 0 0 -185 c0 -190 -5 -221 -42 -244 -25 -16 -88 -17 -116 -2 -41 22 -47 48
-50 244 l-4 187 36 0 36 0 0 -171z m379 154 c43 -35 49 -154 10 -189 -17 -15
-17 -18 -3 -28 19 -15 33 -75 34 -148 l0 -58 -34 0 -33 0 -5 81 c-5 82 -13 99
-50 99 -16 0 -18 -11 -18 -90 l0 -90 -35 0 -35 0 0 220 0 220 74 0 c55 0 79
-4 95 -17z m171 -203 l0 -220 -35 0 -35 0 0 220 0 220 35 0 35 0 0 -220z m270
191 c0 -27 -3 -30 -37 -33 l-38 -3 -3 -187 -2 -188 -35 0 -35 0 0 190 0 190
-35 0 c-32 0 -35 2 -35 30 l0 30 110 0 110 0 0 -29z m119 -49 c12 -43 21 -84
21 -90 0 -7 3 -12 8 -12 4 0 18 41 31 90 l23 90 35 0 c24 0 34 -4 30 -12 -2
-7 -23 -75 -46 -150 -31 -105 -41 -153 -41 -207 l0 -71 -35 0 -35 0 0 76 c0
59 -9 106 -40 211 -22 75 -40 140 -40 144 0 5 15 9 34 9 34 0 34 0 55 -78z
m-3369 -68 c25 -31 55 -68 67 -83 l22 -28 -136 -84 -135 -84 63 -14 c54 -12
60 -15 39 -21 -255 -76 -398 -154 -527 -288 -29 -30 -53 -49 -53 -42 0 8 18
51 40 96 74 152 208 294 355 374 33 18 66 40 73 48 6 9 12 41 12 72 l0 57 38
11 c20 6 46 18 57 26 11 9 25 15 30 15 6 0 30 -25 55 -55z m-580 -66 c0 -10
-15 -27 -32 -38 -75 -46 -219 -10 -226 55 l-3 30 131 -14 c114 -13 130 -17
130 -33z m350 33 c0 -35 -12 -52 -53 -72 -77 -40 -207 -13 -207 42 0 14 12 19
68 25 37 3 87 10 112 14 73 12 80 12 80 -9z"/>
<path d="M1890 813 c0 -9 -17 -121 -25 -165 -4 -26 -2 -28 31 -28 29 0 34 3
30 18 -3 9 -10 54 -17 100 -6 45 -13 82 -15 82 -2 0 -4 -3 -4 -7z"/>
<path d="M3850 790 c0 -60 2 -70 18 -70 35 0 46 17 46 70 0 53 -11 70 -46 70
-16 0 -18 -10 -18 -70z"/>
</g>
</svg>
